<svg width="34" height="28" viewBox="0 0 34 28" fill="none" xmlns="http://www.w3.org/2000/svg">
<path d="M28.5811 16.4411L23.0207 9.97958C22.3124 9.15394 21.0374 9.15394 20.329 9.97958L14.4145 16.836L11.7228 13.8565C11.0853 13.1386 9.95195 13.1386 9.31445 13.8565L5.06445 18.595V22.4001H28.5457V16.4411H28.5811Z" fill="#005D67"/>
<path d="M8.0751 10.7334C9.42474 10.7334 10.5188 9.62443 10.5188 8.25646C10.5188 6.8885 9.42474 5.77954 8.0751 5.77954C6.72545 5.77954 5.63135 6.8885 5.63135 8.25646C5.63135 9.62443 6.72545 10.7334 8.0751 10.7334Z" fill="#005D67"/>
<path d="M32.1229 0H1.52292C0.672917 0 0 0.682051 0 1.54359V26.0256C0 26.8872 0.672917 27.5692 1.52292 27.5692H32.1229C32.9729 27.5692 33.6458 26.8872 33.6458 26.0256V1.54359C33.6458 0.682051 32.9729 0 32.1229 0ZM30.6 24.4821H3.04583V3.08718H30.6V24.4821Z" fill="#005D67"/>
</svg>
